<?xml version="1.0" encoding="UTF-8"?>
<!DOCTYPE svg PUBLIC "-//W3C//DTD SVG 1.1//EN" "http://www.w3.org/Graphics/SVG/1.1/DTD/svg11.dtd">
<svg xmlns="http://www.w3.org/2000/svg" version="1.1" width="601px" height="243px" style="shape-rendering:geometricPrecision; text-rendering:geometricPrecision; image-rendering:optimizeQuality; fill-rule:evenodd; clip-rule:evenodd" xmlns:xlink="http://www.w3.org/1999/xlink">
<g><path style="opacity:1" fill="#fdfefe" d="M -0.5,-0.5 C 199.833,-0.5 400.167,-0.5 600.5,-0.5C 600.5,80.5 600.5,161.5 600.5,242.5C 400.167,242.5 199.833,242.5 -0.5,242.5C -0.5,161.5 -0.5,80.5 -0.5,-0.5 Z"/></g>
<g><path style="opacity:1" fill="#2b5095" d="M 451.5,63.5 C 450.833,63.5 450.5,63.8333 450.5,64.5C 442.665,56.1532 436.165,46.8199 431,36.5C 426.22,18.8925 432.386,7.05916 449.5,1C 475.535,-2.06701 493.702,8.43299 504,32.5C 514.325,58.3541 513.992,84.0208 503,109.5C 501.077,113.258 498.577,116.591 495.5,119.5C 504.126,130.051 503.46,139.884 493.5,149C 483.406,153.658 474.906,151.824 468,143.5C 462.028,128.441 466.862,119.107 482.5,115.5C 486.398,115.811 490.065,116.644 493.5,118C 504.485,104.549 509.818,89.0487 509.5,71.5C 509.59,50.9353 503.423,32.6019 491,16.5C 477.315,3.41228 461.481,-0.0877185 443.5,6C 433.86,12.6709 430.36,21.8376 433,33.5C 434.667,37.1667 436.333,40.8333 438,44.5C 442.519,50.8917 447.019,57.2251 451.5,63.5 Z"/></g>
<g><path style="opacity:1" fill="#fafafa" d="M 331.5,132.5 C 328.333,135.498 325,138.331 321.5,141C 320.256,141.456 319.423,140.956 319,139.5C 318.074,126.759 318.574,114.093 320.5,101.5C 321.404,100.791 321.737,99.791 321.5,98.5C 325.308,98.8368 328.974,98.3368 332.5,97C 329.518,96.502 326.518,96.3354 323.5,96.5C 327.097,81.4028 335.763,70.2362 349.5,63C 358.648,60.6557 363.815,64.1557 365,73.5C 365.051,84.3527 362.051,94.3527 356,103.5C 348.776,113.94 340.609,123.606 331.5,132.5 Z"/></g>
<g><path style="opacity:1" fill="#242424" d="M 332.5,132.5 C 332.167,132.5 331.833,132.5 331.5,132.5C 340.609,123.606 348.776,113.94 356,103.5C 362.051,94.3527 365.051,84.3527 365,73.5C 363.815,64.1557 358.648,60.6557 349.5,63C 335.763,70.2362 327.097,81.4028 323.5,96.5C 326.518,96.3354 329.518,96.502 332.5,97C 328.974,98.3368 325.308,98.8368 321.5,98.5C 321.737,99.791 321.404,100.791 320.5,101.5C 320.633,98.075 319.967,97.7417 318.5,100.5C 316.052,99.5269 313.385,99.1936 310.5,99.5C 309.791,98.596 308.791,98.2627 307.5,98.5C 307.185,94.6286 307.518,90.9619 308.5,87.5C 308.5,90.8333 308.5,94.1667 308.5,97.5C 312.167,97.5 315.833,97.5 319.5,97.5C 323.451,84.3816 330.784,73.5483 341.5,65C 346.359,61.5994 351.692,60.2661 357.5,61C 362.052,62.5881 364.885,65.7548 366,70.5C 367.241,81.6243 364.908,91.9576 359,101.5C 351.914,112.489 343.747,122.656 334.5,132C 333.906,132.464 333.239,132.631 332.5,132.5 Z"/></g>
<g><path style="opacity:1" fill="#6b91c1" d="M 452.5,119.5 C 451.833,106.5 451.167,93.5 450.5,80.5C 441.5,80.5 432.5,80.5 423.5,80.5C 423.5,93.5 423.5,106.5 423.5,119.5C 423.167,119.5 422.833,119.5 422.5,119.5C 422.5,106.167 422.5,92.8333 422.5,79.5C 432.5,79.5 442.5,79.5 452.5,79.5C 452.5,92.8333 452.5,106.167 452.5,119.5 Z"/></g>
<g><path style="opacity:1" fill="#0249ac" d="M 450.5,80.5 C 450.5,94.1667 450.5,107.833 450.5,121.5C 455.186,122.016 457.519,120.016 457.5,115.5C 458.5,115.5 459.5,115.5 460.5,115.5C 461.285,119.596 460.118,122.93 457,125.5C 456.109,129.606 454.942,133.606 453.5,137.5C 448.116,146.55 440.783,153.55 431.5,158.5C 429.565,157.85 427.565,157.517 425.5,157.5C 426.172,154.058 425.172,151.391 422.5,149.5C 409.673,148.669 396.673,148.169 383.5,148C 381.797,139.205 381.13,130.039 381.5,120.5C 395.677,120.829 409.677,120.496 423.5,119.5C 423.5,106.5 423.5,93.5 423.5,80.5C 432.5,80.5 441.5,80.5 450.5,80.5 Z"/></g>
<g><path style="opacity:1" fill="#101010" d="M 308.5,87.5 C 307.518,90.9619 307.185,94.6286 307.5,98.5C 308.791,98.2627 309.791,98.596 310.5,99.5C 309.5,99.5 308.5,99.5 307.5,99.5C 306.04,125.474 305.207,151.474 305,177.5C 303.187,178.609 302.354,177.942 302.5,175.5C 303.332,150.67 303.832,125.67 304,100.5C 305.908,103.332 306.741,102.999 306.5,99.5C 303.615,99.1936 300.948,99.5269 298.5,100.5C 296.167,100.5 293.833,100.5 291.5,100.5C 292.5,99.8333 293.5,99.1667 294.5,98.5C 297.167,98.5 299.833,98.5 302.5,98.5C 302.154,89.4414 302.654,80.4414 304,71.5C 305.079,69.6063 306.413,69.273 308,70.5C 308.499,76.1569 308.666,81.8236 308.5,87.5 Z"/></g>
<g><path style="opacity:1" fill="#838383" d="M 305.5,72.5 C 306.997,74.2897 307.664,76.4563 307.5,79C 306.882,85.1565 306.382,91.3231 306,97.5C 305.5,89.1733 305.334,80.84 305.5,72.5 Z"/></g>
<g><path style="opacity:1" fill="#161616" d="M 320.5,101.5 C 318.574,114.093 318.074,126.759 319,139.5C 319.423,140.956 320.256,141.456 321.5,141C 325,138.331 328.333,135.498 331.5,132.5C 331.833,132.5 332.167,132.5 332.5,132.5C 329.168,136.664 325.335,140.331 321,143.5C 320.186,145.902 320.353,148.235 321.5,150.5C 323.984,148.517 326.317,146.35 328.5,144C 333.584,141.679 338.25,142.345 342.5,146C 345.833,146.333 349.167,146.667 352.5,147C 350.419,147.869 348.253,148.369 346,148.5C 341.913,147.458 337.913,146.124 334,144.5C 333.167,144.667 332.333,144.833 331.5,145C 328.276,148.727 324.609,151.894 320.5,154.5C 319.201,153.91 318.368,152.91 318,151.5C 316.781,141.867 315.947,132.201 315.5,122.5C 315.522,114.984 316.522,107.651 318.5,100.5C 319.967,97.7417 320.633,98.075 320.5,101.5 Z"/></g>
<g><path style="opacity:1" fill="#284da8" d="M 463.5,90.5 C 464.593,97.4505 464.76,104.45 464,111.5C 463.768,112.737 463.268,113.737 462.5,114.5C 461.182,111.742 460.515,108.576 460.5,105C 460.667,101.833 460.833,98.6667 461,95.5C 461.099,93.3474 461.933,91.6808 463.5,90.5 Z"/></g>
<g><path style="opacity:1" fill="#1f4d99" d="M 451.5,63.5 C 458.169,71.1236 462.169,80.1236 463.5,90.5C 461.933,91.6808 461.099,93.3474 461,95.5C 460.833,98.6667 460.667,101.833 460.5,105C 460.515,108.576 461.182,111.742 462.5,114.5C 461.432,122.962 458.432,130.629 453.5,137.5C 454.942,133.606 456.109,129.606 457,125.5C 460.118,122.93 461.285,119.596 460.5,115.5C 459.5,115.5 458.5,115.5 457.5,115.5C 457.519,120.016 455.186,122.016 450.5,121.5C 450.5,107.833 450.5,94.1667 450.5,80.5C 451.167,93.5 451.833,106.5 452.5,119.5C 453.5,119.5 454.5,119.5 455.5,119.5C 460.849,100.46 459.182,82.1268 450.5,64.5C 450.5,63.8333 450.833,63.5 451.5,63.5 Z"/></g>
<g><path style="opacity:1" fill="#3d66a5" d="M 422.5,119.5 C 422.833,119.5 423.167,119.5 423.5,119.5C 409.677,120.496 395.677,120.829 381.5,120.5C 381.13,130.039 381.797,139.205 383.5,148C 396.673,148.169 409.673,148.669 422.5,149.5C 408.5,149.5 394.5,149.5 380.5,149.5C 380.5,139.5 380.5,129.5 380.5,119.5C 394.5,119.5 408.5,119.5 422.5,119.5 Z"/></g>
<g><path style="opacity:1" fill="#687e8a" d="M 465.5,120.5 C 466.376,120.369 467.043,120.702 467.5,121.5C 464.708,126.835 464.042,126.502 465.5,120.5 Z"/></g>
<g><path style="opacity:1" fill="#616161" d="M 298.5,100.5 C 300.948,99.5269 303.615,99.1936 306.5,99.5C 306.741,102.999 305.908,103.332 304,100.5C 303.832,125.67 303.332,150.67 302.5,175.5C 302.5,150.5 302.5,125.5 302.5,100.5C 301.167,100.5 299.833,100.5 298.5,100.5 Z"/></g>
<g><path style="opacity:1" fill="#e7f2f6" d="M 478.5,118.5 C 492.876,117.625 499.376,124.292 498,138.5C 494.061,147.718 487.228,150.884 477.5,148C 467.81,141.599 465.976,133.432 472,123.5C 474.326,121.934 476.492,120.268 478.5,118.5 Z"/></g>
<g><path style="opacity:1" fill="#094aad" d="M 492.5,127.5 C 492.665,130.85 492.498,134.183 492,137.5C 491.29,138.973 490.124,139.64 488.5,139.5C 488.762,138.022 488.429,136.689 487.5,135.5C 485.976,136.527 485.309,138.027 485.5,140C 485.559,141.436 485.892,142.769 486.5,144C 483.493,144.301 480.493,144.135 477.5,143.5C 469.281,136.297 469.614,129.464 478.5,123C 482.295,122.163 485.961,122.496 489.5,124C 491.063,124.759 492.063,125.926 492.5,127.5 Z"/></g>
<g><path style="opacity:1" fill="#244d96" d="M 451.5,148.5 C 453.177,146.46 454.844,144.46 456.5,142.5C 456.703,144.39 456.037,145.89 454.5,147C 458.211,147.825 461.878,147.659 465.5,146.5C 464.833,145.167 463.833,144.167 462.5,143.5C 461.702,141.922 461.202,140.256 461,138.5C 460.329,139.252 459.496,139.586 458.5,139.5C 459.731,136.039 461.231,132.706 463,129.5C 462.435,136.305 464.268,142.305 468.5,147.5C 462.872,148.495 457.206,148.829 451.5,148.5 Z"/></g>
<g><path style="opacity:1" fill="#1d4d9a" d="M 492.5,127.5 C 493.117,127.611 493.617,127.944 494,128.5C 496.135,140.357 491.302,145.857 479.5,145C 478.584,144.722 477.918,144.222 477.5,143.5C 480.493,144.135 483.493,144.301 486.5,144C 485.892,142.769 485.559,141.436 485.5,140C 485.309,138.027 485.976,136.527 487.5,135.5C 488.429,136.689 488.762,138.022 488.5,139.5C 490.124,139.64 491.29,138.973 492,137.5C 492.498,134.183 492.665,130.85 492.5,127.5 Z"/></g>
<g><path style="opacity:1" fill="#1e1e1e" d="M 294.5,98.5 C 293.5,99.1667 292.5,99.8333 291.5,100.5C 287.859,114.279 281.192,126.445 271.5,137C 268.5,139.167 265.5,141.333 262.5,143.5C 269.331,152.765 277.998,154.932 288.5,150C 291.167,148 293.833,146 296.5,144C 297.332,143.312 297.998,143.479 298.5,144.5C 285.729,157.282 272.729,157.615 259.5,145.5C 257.757,147.038 255.757,148.038 253.5,148.5C 255.327,147.068 256.994,145.401 258.5,143.5C 248.93,130.367 245.763,115.7 249,99.5C 251.653,86.3573 257.82,75.1906 267.5,66C 279.951,58.1501 288.118,61.3168 292,75.5C 292.597,83.1853 292.43,90.852 291.5,98.5C 292.5,98.5 293.5,98.5 294.5,98.5 Z"/></g>
<g><path style="opacity:1" fill="#fafafa" d="M 278.5,101.5 C 281.5,101.5 284.5,101.5 287.5,101.5C 284.335,118.518 275.668,131.852 261.5,141.5C 257.75,138.345 255.25,134.345 254,129.5C 251.953,121.294 251.119,112.961 251.5,104.5C 260.681,103.85 269.681,102.85 278.5,101.5 Z"/></g>
<g><path style="opacity:1" fill="#fafafa" d="M 275.5,64.5 C 281.392,63.0733 285.559,65.0733 288,70.5C 289.806,80.1185 289.973,89.7852 288.5,99.5C 276.498,99.7421 264.665,101.075 253,103.5C 253.974,91.2558 258.474,80.4225 266.5,71C 269.402,68.5828 272.402,66.4161 275.5,64.5 Z"/></g>
<g><path style="opacity:1" fill="#0c47b0" d="M 456.5,142.5 C 456.427,140.973 457.094,139.973 458.5,139.5C 459.496,139.586 460.329,139.252 461,138.5C 461.202,140.256 461.702,141.922 462.5,143.5C 463.833,144.167 464.833,145.167 465.5,146.5C 461.878,147.659 458.211,147.825 454.5,147C 456.037,145.89 456.703,144.39 456.5,142.5 Z"/></g>
<g><path style="opacity:1" fill="#1f1f1f" d="M 186.5,151.5 C 184.735,150.539 182.735,150.205 180.5,150.5C 180.216,152.415 180.549,154.081 181.5,155.5C 182.148,160.828 182.315,166.162 182,171.5C 181.5,173.333 180.333,174.5 178.5,175C 175.5,175.667 172.5,175.667 169.5,175C 156.305,170.324 142.972,166.157 129.5,162.5C 129.5,168.5 129.5,174.5 129.5,180.5C 128.5,180.5 127.5,180.5 126.5,180.5C 126.614,173.753 125.947,167.087 124.5,160.5C 118.602,158.471 118.269,156.137 123.5,153.5C 124.182,125.493 125.015,97.493 126,69.5C 126.376,66.9899 127.21,64.6565 128.5,62.5C 128.658,92.1416 128.658,121.808 128.5,151.5C 144.406,149.117 160.406,148.117 176.5,148.5C 174.813,120.122 175.313,91.7883 178,63.5C 178.414,63.0426 178.914,62.7093 179.5,62.5C 179.833,64.6667 180.167,66.8333 180.5,69C 178.104,94.8215 177.938,120.655 180,146.5C 180.5,147.667 181.333,148.5 182.5,149C 188.914,149.483 195.248,150.483 201.5,152C 204.234,152.718 204.9,154.218 203.5,156.5C 198.436,152.802 192.769,151.135 186.5,151.5 Z"/></g>
<g><path style="opacity:1" fill="#f4f4f4" d="M 153.5,151.5 C 161.5,151.5 169.5,151.5 177.5,151.5C 178.443,158.144 178.609,164.811 178,171.5C 171.041,172.516 164.208,171.682 157.5,169C 147.847,166.227 138.347,163.06 129,159.5C 128.217,157.567 128.717,156.067 130.5,155C 138.297,153.738 145.964,152.571 153.5,151.5 Z"/></g>
<g><path style="opacity:1" fill="#1a1a1a" d="M 253.5,148.5 C 249.199,152.767 245.199,152.433 241.5,147.5C 237.514,151.793 233.014,152.793 228,150.5C 223.918,153.291 219.418,154.124 214.5,153C 212.274,151.38 210.94,149.214 210.5,146.5C 211.923,140.589 215.09,135.923 220,132.5C 223.01,134.25 223.343,136.584 221,139.5C 219.185,141.405 217.185,143.072 215,144.5C 214.104,147.025 214.604,149.192 216.5,151C 219.558,151.458 222.558,151.124 225.5,150C 230.425,145.055 236.259,141.889 243,140.5C 245.051,140.423 246.884,140.923 248.5,142C 244.232,142.031 240.232,143.031 236.5,145C 234.671,146.113 233.837,147.613 234,149.5C 237,147.5 240,145.5 243,143.5C 244.529,144.729 245.696,146.229 246.5,148C 248.81,148.497 251.143,148.663 253.5,148.5 Z"/></g>
<g><path style="opacity:1" fill="#cfcfcf" d="M 218.5,136.5 C 219.239,136.369 219.906,136.536 220.5,137C 219.924,139.268 218.59,140.268 216.5,140C 217.305,138.887 217.972,137.721 218.5,136.5 Z"/></g>
<g><path style="opacity:1" fill="#9f9f9f" d="M 186.5,151.5 C 184.833,151.5 183.167,151.5 181.5,151.5C 181.5,152.833 181.5,154.167 181.5,155.5C 180.549,154.081 180.216,152.415 180.5,150.5C 182.735,150.205 184.735,150.539 186.5,151.5 Z"/></g>
<g><path style="opacity:1" fill="#194c9f" d="M 422.5,149.5 C 425.172,151.391 426.172,154.058 425.5,157.5C 427.565,157.517 429.565,157.85 431.5,158.5C 426.618,161.464 421.285,163.464 415.5,164.5C 410.604,162.554 405.271,161.887 399.5,162.5C 399.5,162.167 399.5,161.833 399.5,161.5C 407.257,161.061 414.59,159.061 421.5,155.5C 422.466,153.604 422.799,151.604 422.5,149.5 Z"/></g>
<g><path style="opacity:1" fill="#c6c6c6" d="M 123.5,156.5 C 125.337,156.639 125.67,157.306 124.5,158.5C 123.702,158.043 123.369,157.376 123.5,156.5 Z"/></g>
<g><path style="opacity:1" fill="#0549ac" d="M 447.5,152.5 C 450.099,154.787 449.766,156.953 446.5,159C 447.448,159.483 448.448,159.649 449.5,159.5C 449.818,168.751 449.485,177.917 448.5,187C 440.547,187.369 432.714,187.535 425,187.5C 424.5,180.508 424.334,173.508 424.5,166.5C 433.2,163.453 440.867,158.786 447.5,152.5 Z"/></g>
<g><path style="opacity:1" fill="#7a9ec0" d="M 451.5,148.5 C 451.829,162.01 451.496,175.344 450.5,188.5C 450.829,175.656 450.495,162.989 449.5,150.5C 449.833,149.5 450.5,148.833 451.5,148.5 Z"/></g>
<g><path style="opacity:1" fill="#2a53a0" d="M 399.5,161.5 C 399.5,161.833 399.5,162.167 399.5,162.5C 397.369,163.314 395.036,163.814 392.5,164C 392.957,164.414 393.291,164.914 393.5,165.5C 397.107,166.489 400.774,166.823 404.5,166.5C 385.164,168.772 368.331,163.105 354,149.5C 353.312,148.668 353.479,148.002 354.5,147.5C 367.49,158.346 382.49,163.012 399.5,161.5 Z"/></g>
<g><path style="opacity:1" fill="#0647ad" d="M 399.5,162.5 C 405.271,161.887 410.604,162.554 415.5,164.5C 412.054,165.687 408.387,166.354 404.5,166.5C 400.774,166.823 397.107,166.489 393.5,165.5C 393.291,164.914 392.957,164.414 392.5,164C 395.036,163.814 397.369,163.314 399.5,162.5 Z"/></g>
<g><path style="opacity:1" fill="#214f8e" d="M 449.5,150.5 C 450.495,162.989 450.829,175.656 450.5,188.5C 441.5,188.5 432.5,188.5 423.5,188.5C 423.175,180.981 423.508,173.648 424.5,166.5C 424.334,173.508 424.5,180.508 425,187.5C 432.714,187.535 440.547,187.369 448.5,187C 449.485,177.917 449.818,168.751 449.5,159.5C 448.448,159.649 447.448,159.483 446.5,159C 449.766,156.953 450.099,154.787 447.5,152.5C 447.833,151.5 448.5,150.833 449.5,150.5 Z"/></g>
<g><path style="opacity:1" fill="#202020" d="M 470.5,208.5 C 467.365,212.235 463.365,214.068 458.5,214C 454.747,209.574 453.081,204.407 453.5,198.5C 453.837,185.326 457.67,173.326 465,162.5C 469.385,158.244 473.385,158.577 477,163.5C 478.035,170.355 477.368,177.022 475,183.5C 474.346,184.696 473.846,184.696 473.5,183.5C 476.047,178.076 476.88,172.41 476,166.5C 475.252,162.086 472.752,160.586 468.5,162C 462.195,168.558 458.362,176.391 457,185.5C 455.043,193.509 455.043,201.509 457,209.5C 458.525,212.087 460.692,212.92 463.5,212C 465.886,210.807 468.22,209.64 470.5,208.5 Z"/></g>
<g><path style="opacity:1" fill="#404040" d="M 477.5,201.5 C 479.473,195.846 483.14,194.012 488.5,196C 484.998,196.656 484.998,197.989 488.5,200C 484.813,199.631 481.146,200.131 477.5,201.5 Z"/></g>
<g><path style="opacity:1" fill="#7f7f7f" d="M 494.5,192.5 C 495.5,192.5 496.5,192.5 497.5,192.5C 497.737,193.791 497.404,194.791 496.5,195.5C 496.565,195.062 496.399,194.728 496,194.5C 495.044,195.579 494.211,196.745 493.5,198C 492.833,198.667 492.167,198.667 491.5,198C 493.16,196.512 494.16,194.679 494.5,192.5 Z"/></g>
<g><path style="opacity:1" fill="#272727" d="M 496.5,195.5 C 497.404,194.791 497.737,193.791 497.5,192.5C 496.5,192.5 495.5,192.5 494.5,192.5C 494.281,191.325 494.614,190.325 495.5,189.5C 497.102,190.601 498.102,192.101 498.5,194C 497.784,196.792 497.451,199.626 497.5,202.5C 498.873,202.657 500.207,202.49 501.5,202C 503.712,199.079 505.545,195.912 507,192.5C 508.011,191.663 509.178,191.33 510.5,191.5C 510.067,194.285 508.734,196.619 506.5,198.5C 507.714,200.069 509.381,200.902 511.5,201C 508.975,201.896 506.808,201.396 505,199.5C 498.417,207.021 495.583,205.687 496.5,195.5 Z"/></g>
<g><path style="opacity:1" fill="#626262" d="M 477.5,201.5 C 476.167,204.833 473.833,207.167 470.5,208.5C 472.5,205.833 474.833,203.5 477.5,201.5 Z"/></g>
</svg>
